<svg width="16" height="16" viewBox="0 0 16 16" fill="none" xmlns="http://www.w3.org/2000/svg">
<path d="M8.00112 1.75073C4.55412 1.75073 1.74976 4.55509 1.74976 8.0021C1.74976 11.4491 4.55412 14.2535 8.00112 14.2535C11.4481 14.2535 14.2525 11.4491 14.2525 8.0021C14.2525 4.55509 11.4481 1.75073 8.00112 1.75073ZM8.00112 4.31379C8.16185 4.31379 8.31897 4.36145 8.45262 4.45075C8.58626 4.54005 8.69043 4.66697 8.75194 4.81547C8.81345 4.96397 8.82954 5.12737 8.79818 5.28501C8.76682 5.44266 8.68942 5.58746 8.57577 5.70112C8.46211 5.81477 8.31731 5.89217 8.15967 5.92353C8.00202 5.95489 7.83862 5.93879 7.69012 5.87728C7.54162 5.81577 7.4147 5.71161 7.3254 5.57797C7.2361 5.44432 7.18844 5.2872 7.18844 5.12647C7.18844 4.91093 7.27406 4.70423 7.42647 4.55182C7.57888 4.39941 7.78558 4.31379 8.00112 4.31379ZM9.50145 11.3778H6.75085C6.61821 11.3778 6.491 11.3251 6.39722 11.2314C6.30343 11.1376 6.25074 11.0104 6.25074 10.8777C6.25074 10.7451 6.30343 10.6179 6.39722 10.5241C6.491 10.4303 6.61821 10.3776 6.75085 10.3776H7.62604V7.62701H7.12593C6.99329 7.62701 6.86609 7.57432 6.7723 7.48054C6.67851 7.38675 6.62582 7.25954 6.62582 7.1269C6.62582 6.99427 6.67851 6.86706 6.7723 6.77327C6.86609 6.67949 6.99329 6.6268 7.12593 6.6268H8.12615C8.25878 6.6268 8.38599 6.67949 8.47978 6.77327C8.57357 6.86706 8.62626 6.99427 8.62626 7.1269V10.3776H9.50145C9.63408 10.3776 9.76129 10.4303 9.85508 10.5241C9.94887 10.6179 10.0016 10.7451 10.0016 10.8777C10.0016 11.0104 9.94887 11.1376 9.85508 11.2314C9.76129 11.3251 9.63408 11.3778 9.50145 11.3778Z" fill="#808080"/>
</svg>
