<svg width="12" height="13" viewBox="0 0 12 13" fill="none" xmlns="http://www.w3.org/2000/svg">
<path d="M2.46161 4.82272C2.46161 4.95195 2.3582 5.05699 2.23096 5.05699C2.10342 5.05699 2.0003 4.95195 2.0003 4.82272V3.84795C2.0003 3.20209 2.2602 2.61502 2.67931 2.18966C3.0981 1.76429 3.6761 1.5 4.31199 1.5H7.68831C8.3242 1.5 8.9022 1.76429 9.321 2.18966C9.7398 2.61502 10 3.20209 10 3.84795V9.15205C10 9.79791 9.7401 10.385 9.321 10.8103C8.9022 11.2357 8.3242 11.5 7.68831 11.5H4.31199C3.6761 11.5 3.0981 11.2357 2.67931 10.8103C2.26051 10.385 2.0003 9.79791 2.0003 9.15205V8.17728C2.0003 8.04805 2.10372 7.94301 2.23096 7.94301C2.3582 7.94301 2.46161 8.04805 2.46161 8.17728V9.15205C2.46161 9.66868 2.66996 10.1381 3.00524 10.479C3.34082 10.8195 3.80304 11.0311 4.31169 11.0311H7.68801C8.19666 11.0311 8.65888 10.8195 8.99446 10.479C9.32974 10.1381 9.53809 9.66868 9.53809 9.15205V3.84795C9.53809 3.33132 9.32974 2.86185 8.99446 2.52101C8.65888 2.18047 8.19666 1.96886 7.68801 1.96886H4.31169C3.80304 1.96886 3.34082 2.18047 3.00524 2.52101C2.66996 2.86185 2.46161 3.33132 2.46161 3.84795V4.82272ZM4.49953 5.1605C4.41812 5.06128 4.43078 4.91367 4.52847 4.83099C4.62616 4.74799 4.77149 4.76116 4.8529 4.86038L6.07674 6.35025C6.15 6.43906 6.14699 6.56707 6.07523 6.65251L4.8529 8.14023C4.77119 8.23945 4.62586 8.25262 4.52847 8.16963C4.43109 8.08694 4.41812 7.93933 4.49953 7.84011L5.40768 6.73489H2.23066C2.10312 6.73489 2 6.62985 2 6.50061C2 6.37107 2.10342 6.26634 2.23066 6.26634H5.40768L4.49953 5.16111V5.1605Z" fill="#9C9C9C" stroke="#9C9C9C" stroke-width="0.577785"/>
</svg>
