<svg width="20" height="20" viewBox="0 0 20 20" fill="none" xmlns="http://www.w3.org/2000/svg">
<path d="M4.37524 4.37677L5.15649 16.8768C5.1936 17.599 5.71899 18.1268 6.40649 18.1268H13.594C14.2842 18.1268 14.7999 17.599 14.844 16.8768L15.6252 4.37677" stroke="#EA4343" stroke-width="1.00189" stroke-linecap="round" stroke-linejoin="round"/>
<path d="M3.12549 4.37708H16.8755" stroke="#EA4343" stroke-width="1.00189" stroke-miterlimit="10" stroke-linecap="round"/>
<path d="M7.5 4.37542V2.8127C7.49964 2.68947 7.52365 2.56738 7.57064 2.45346C7.61763 2.33953 7.68669 2.23603 7.77383 2.14889C7.86096 2.06175 7.96447 1.9927 8.07839 1.9457C8.19232 1.89871 8.3144 1.8747 8.43764 1.87507H11.5631C11.6863 1.8747 11.8084 1.89871 11.9223 1.9457C12.0362 1.9927 12.1398 2.06175 12.2269 2.14889C12.314 2.23603 12.3831 2.33953 12.4301 2.45346C12.4771 2.56738 12.5011 2.68947 12.5007 2.8127V4.37542" stroke="#EA4343" stroke-width="1.00189" stroke-linecap="round" stroke-linejoin="round"/>
<path d="M10.0006 6.87482V15.6248" stroke="#EA4343" stroke-width="1.00189" stroke-linecap="round" stroke-linejoin="round"/>
<path d="M7.18762 6.87482L7.50012 15.6248" stroke="#EA4343" stroke-width="1.00189" stroke-linecap="round" stroke-linejoin="round"/>
<path d="M12.8126 6.87482L12.5001 15.6248" stroke="#EA4343" stroke-width="1.00189" stroke-linecap="round" stroke-linejoin="round"/>
</svg>
