<svg width="120" height="120" viewBox="0 0 120 120" fill="none" xmlns="http://www.w3.org/2000/svg">
<path d="M120 60C120 26.8305 93.1695 0 60 0C26.8305 0 0 26.8305 0 60C0 93.1695 26.8305 120 60 120C93.1695 120 120 93.1695 120 60ZM5.89681 60C5.89681 30.0737 30.2211 5.89681 60 5.89681C89.7789 5.89681 114.103 30.0737 114.103 60C114.103 75.1843 107.912 88.8943 97.7396 98.6241C89.9263 85.2088 75.6265 76.9533 59.8526 76.9533C44.2261 76.9533 29.7789 85.3563 21.9656 98.6241C12.0885 88.8943 5.89681 75.1843 5.89681 60ZM26.683 102.604C33.317 90.516 46.1425 82.8501 60 82.8501C74.0049 82.8501 86.6831 90.3686 93.317 102.604C84.1769 109.828 72.5307 114.103 60 114.103C47.4693 114.103 35.8231 109.828 26.683 102.604Z" fill="#C6C6C6"/>
<path d="M60.0032 69.2871C72.9762 69.2871 83.5905 58.6728 83.5905 45.6998C83.5905 32.7269 72.9762 22.1126 60.0032 22.1126C47.0303 22.1126 36.416 32.7269 36.416 45.6998C36.416 58.6728 47.0303 69.2871 60.0032 69.2871ZM60.0032 28.0094C69.733 28.0094 77.6937 35.9701 77.6937 45.6998C77.6937 55.4296 69.733 63.3903 60.0032 63.3903C50.2735 63.3903 42.3128 55.4296 42.3128 45.6998C42.3128 35.9701 50.2735 28.0094 60.0032 28.0094Z" fill="#C6C6C6"/>
</svg>
