<svg width="120" height="120" viewBox="0 0 120 120" fill="none" xmlns="http://www.w3.org/2000/svg">
<g clip-path="url(#clip0_3_931)">
<rect width="120" height="120" rx="60" fill="white"/>
<circle cx="60" cy="60" r="60" fill="#DEF4FF"/>
<path d="M105.876 83.3869C110.004 73.3069 103.296 72.2749 96.3119 67.0669C89.3279 61.8589 100.704 59.6269 103.032 54.2749C105.36 48.9229 101.22 45.1549 96.0599 42.3109C90.8879 39.4669 83.3759 28.4029 83.3759 28.4029L83.0399 28.2469C86.9399 36.0709 86.7719 45.0109 86.7119 46.3429C87.9599 46.4149 90.2879 46.9309 90.5759 49.8829C90.9599 53.9269 89.6039 57.0349 87.0839 58.3789C87.0839 58.3789 86.6039 58.5949 85.5839 58.7989C82.4519 71.5669 73.1279 80.8429 62.0999 80.8429C51.0719 80.8429 41.7359 71.5669 38.6159 58.7749V58.8589C37.3799 58.6429 36.8399 58.3789 36.8399 58.3789C34.3199 57.0349 32.9639 53.9269 33.3479 49.8829C33.6479 46.6909 36.3599 46.3429 37.4879 46.3309C37.4639 45.5869 37.4039 42.5749 37.9799 38.7349C36.0719 39.6709 30.3479 42.7669 30.4559 46.3309C30.5999 50.6149 31.8239 56.4949 26.3159 58.0909C20.8079 59.6869 20.6159 69.9469 22.9319 75.1549C25.2479 80.3629 26.8079 83.6389 19.5359 86.8189C12.2639 89.9989 20.3519 96.0469 19.5719 107.663C18.7919 119.279 29.3879 114.131 50.4839 110.255C71.5799 106.379 86.7359 111.551 98.1119 110.255C109.476 108.959 108.192 105.359 104.052 100.007C99.9119 94.6549 101.724 93.4669 105.864 83.3869H105.876Z" fill="#441D39"/>
<path d="M65.6162 20.0998L83.0522 28.2478C79.7762 21.6838 73.6322 15.8998 62.1122 16.0558C44.3762 15.8038 39.3722 29.6398 37.9922 38.7358C38.3762 38.5438 38.6162 38.4358 38.6162 38.4358L65.6162 20.0878V20.0998Z" fill="#C1735C"/>
<path d="M108.204 105.361C98.2679 102.013 73.4399 89.1609 73.4399 89.1609H48.7559C48.7559 89.1609 23.9399 102.013 13.9919 105.361C4.05588 108.709 4.05588 125.677 4.05588 125.677H118.152C118.152 125.677 118.152 108.709 108.216 105.361H108.204Z" fill="#4598C4"/>
<path d="M71.9163 77.4235H50.1603L48.5403 91.0315L61.3323 118.451L73.5963 90.3115L71.9163 77.4235Z" fill="#C1735C"/>
<path d="M50.1957 76.896L49.2237 85.272C49.2237 85.272 66.0837 86.82 72.0237 79.428V78.168C68.9877 79.884 65.6397 80.844 62.0997 80.844C57.7797 80.844 53.7237 79.404 50.1957 76.896Z" fill="#A5503C"/>
<path d="M90.5877 49.884C90.3117 46.932 87.9717 46.416 86.7237 46.344C86.7717 45.012 86.9517 36.072 83.0517 28.248L65.6157 20.1L38.6157 38.448C38.6157 38.448 38.3757 38.556 37.9917 38.748C37.4037 42.588 37.4637 45.6 37.4997 46.344C36.3717 46.344 33.6597 46.704 33.3597 49.896C32.9757 53.94 34.3317 57.048 36.8517 58.392C36.8517 58.392 37.3917 58.656 38.6277 58.872V58.788C40.5237 66.564 44.7237 73.032 50.2077 76.908C53.7357 79.416 57.7917 80.856 62.1117 80.856C65.6397 80.856 68.9997 79.896 72.0357 78.18C78.4797 74.544 83.4717 67.488 85.5957 58.812C86.6277 58.608 87.0957 58.392 87.0957 58.392C89.6157 57.048 90.9717 53.94 90.5877 49.896V49.884Z" fill="#C1735C"/>
<path d="M45.1678 42.5286C49.2838 42.2406 52.7878 43.2006 54.5638 43.7406C55.1038 43.9086 55.6678 43.6926 55.8958 43.2726C56.1358 42.7806 55.8358 42.2166 55.2358 42.0246C53.2198 41.4006 49.5718 40.4046 45.5278 41.3526C44.9038 41.4966 43.7878 41.9646 44.0518 42.4806C44.2078 42.6606 44.6278 42.5766 45.1678 42.5406V42.5286Z" fill="#441D39"/>
<path d="M79.2835 42.7317C75.1795 42.2757 71.6515 43.1037 69.8515 43.5837C69.3115 43.7277 68.7475 43.4997 68.5435 43.0557C68.3155 42.5517 68.6395 41.9877 69.2515 41.8317C71.2915 41.2797 74.9755 40.4277 78.9835 41.5317C79.5955 41.6997 80.6995 42.2157 80.4115 42.7197C80.2435 42.8997 79.8355 42.7917 79.2955 42.7197L79.2835 42.7317Z" fill="#441D39"/>
<path d="M73.7403 51.8869C74.5422 51.8869 75.1923 50.7586 75.1923 49.3669C75.1923 47.9751 74.5422 46.8469 73.7403 46.8469C72.9384 46.8469 72.2883 47.9751 72.2883 49.3669C72.2883 50.7586 72.9384 51.8869 73.7403 51.8869Z" fill="#441D39"/>
<path d="M51.9598 51.3712C52.7617 51.3712 53.4118 50.243 53.4118 48.8512C53.4118 47.4595 52.7617 46.3312 51.9598 46.3312C51.1579 46.3312 50.5078 47.4595 50.5078 48.8512C50.5078 50.243 51.1579 51.3712 51.9598 51.3712Z" fill="#441D39"/>
<path d="M63.8158 60.6958H61.5238C60.5038 60.6958 59.6038 60.2998 59.1238 59.6398C58.7758 59.1718 58.6798 58.6198 58.8478 58.0798C59.3758 56.3638 59.8198 54.7198 59.8198 54.7078C59.9038 54.3838 60.2278 54.2038 60.5518 54.2878C60.8758 54.3718 61.0678 54.7078 60.9718 55.0198C60.9718 55.0198 60.5278 56.6878 59.9878 58.4278C59.9398 58.6078 59.9638 58.7638 60.0838 58.9318C60.3358 59.2798 60.8998 59.4958 61.5238 59.4958H63.8158C64.1518 59.4958 64.4158 59.7598 64.4158 60.0958C64.4158 60.4318 64.1518 60.6958 63.8158 60.6958Z" fill="#A5503C"/>
<path d="M61.6203 68.244C58.8243 68.244 56.7003 67.86 56.5443 67.824C56.2203 67.764 56.0043 67.452 56.0643 67.128C56.1243 66.804 56.4363 66.588 56.7603 66.648C56.8203 66.648 63.5163 67.884 68.7483 65.928C69.0603 65.808 69.4083 65.964 69.5163 66.276C69.6363 66.588 69.4683 66.936 69.1683 67.044C66.6603 67.98 63.9123 68.244 61.6083 68.244H61.6203Z" fill="#A5503C"/>
<path d="M74.94 55.8356C77.2529 55.8356 79.128 55.4058 79.128 54.8756C79.128 54.3455 77.2529 53.9156 74.94 53.9156C72.627 53.9156 70.752 54.3455 70.752 54.8756C70.752 55.4058 72.627 55.8356 74.94 55.8356Z" fill="#AF5D4E"/>
<path d="M50.5076 55.8356C52.8205 55.8356 54.6956 55.4058 54.6956 54.8756C54.6956 54.3455 52.8205 53.9156 50.5076 53.9156C48.1946 53.9156 46.3195 54.3455 46.3195 54.8756C46.3195 55.4058 48.1946 55.8356 50.5076 55.8356Z" fill="#AF5D4E"/>
<path d="M36.6235 39.5276L36.6955 40.0916L33.2875 43.6316L30.6715 51.3716C30.6715 51.3716 33.7315 61.2956 38.0875 67.4516C42.4315 73.6196 40.4515 64.3076 38.6155 58.7636C36.7795 53.2196 40.2115 53.1476 41.0155 49.3676C41.5195 46.9796 40.6315 44.7836 39.9115 43.4996C39.2755 41.3036 39.8395 38.6636 42.8515 37.8476C49.9075 35.9156 45.2875 24.2156 45.2875 24.2156C41.2315 26.8196 37.7035 37.3316 36.6355 39.5156L36.6235 39.5276Z" fill="#441D39"/>
<path d="M90.6475 43.6316L88.1515 43.8236C87.1315 38.5556 84.8875 28.1636 82.8595 27.0836C80.1235 25.6316 77.0155 27.9956 77.0155 27.9956C77.0155 27.9956 78.5755 36.5036 81.9955 38.4236C84.0235 39.5636 84.0115 42.1316 84.0595 44.0276C82.8835 50.1596 79.8355 56.9756 86.7115 63.1316C94.2115 69.8396 95.8315 51.8876 95.8315 51.8876L90.6475 43.6316Z" fill="#441D39"/>
<path d="M86.9042 17.9771C83.0282 11.5331 68.1242 8.34111 55.7162 10.8731L54.8882 8.07711C54.7322 7.56111 54.1922 7.26111 53.6642 7.41711C53.1482 7.57311 52.8482 8.11311 53.0042 8.64111L53.7962 11.3411C44.2082 13.8491 34.2242 20.9891 29.8442 29.9651C25.3322 39.2051 36.7082 39.4091 36.7082 39.4091C46.3922 24.8051 83.3762 28.4051 83.3762 28.4051C85.5242 27.9491 90.8882 24.6251 86.8922 17.9891L86.9042 17.9771Z" fill="#FF7C59"/>
<path d="M43.044 99.3118C42.816 99.3118 42.6 99.1918 42.504 98.9758C42.36 98.6758 42.492 98.3158 42.78 98.1718L47.304 95.9998C47.604 95.8558 47.964 95.9878 48.108 96.2878C48.252 96.5878 48.12 96.9478 47.832 97.0918L43.308 99.2638C43.224 99.2998 43.14 99.3238 43.044 99.3238V99.3118Z" fill="#2A5E70"/>
<path d="M45.1077 106.451C44.8797 106.451 44.6637 106.331 44.5677 106.115C44.4237 105.815 44.5557 105.455 44.8437 105.311L49.3677 103.139C49.6677 102.995 50.0277 103.127 50.1717 103.415C50.3157 103.703 50.1837 104.075 49.8957 104.219L45.3717 106.391C45.2877 106.427 45.2037 106.451 45.1077 106.451Z" fill="#2A5E70"/>
<path d="M47.7362 114.889C47.5082 114.889 47.2922 114.769 47.1962 114.553C47.0522 114.253 47.1842 113.893 47.4722 113.749L51.9962 111.577C52.2962 111.433 52.6562 111.565 52.8002 111.853C52.9442 112.153 52.8122 112.513 52.5242 112.657L48.0002 114.829C47.9162 114.865 47.8322 114.889 47.7362 114.889Z" fill="#2A5E70"/>
<path d="M78.3482 99.3121C78.2642 99.3121 78.1682 99.2881 78.0842 99.2521L73.5602 97.0801C73.2602 96.9361 73.1402 96.5761 73.2842 96.2761C73.4282 95.9761 73.7882 95.8441 74.0882 95.9881L78.6122 98.1601C78.9122 98.3041 79.0322 98.6641 78.8882 98.9641C78.7802 99.1801 78.5762 99.3001 78.3482 99.3001V99.3121Z" fill="#2A5E70"/>
<path d="M76.2845 106.451C76.2005 106.451 76.1045 106.427 76.0205 106.391L71.4965 104.219C71.1965 104.075 71.0765 103.715 71.2205 103.415C71.3645 103.115 71.7245 102.995 72.0245 103.139L76.5485 105.311C76.8485 105.455 76.9685 105.815 76.8245 106.115C76.7165 106.331 76.5125 106.451 76.2845 106.451Z" fill="#2A5E70"/>
<path d="M73.656 114.888C73.572 114.888 73.476 114.864 73.392 114.828L68.868 112.656C68.568 112.512 68.448 112.152 68.592 111.852C68.736 111.552 69.096 111.432 69.396 111.576L73.92 113.748C74.22 113.892 74.34 114.252 74.196 114.552C74.088 114.768 73.884 114.888 73.656 114.888Z" fill="#2A5E70"/>
</g>
<defs>
<clipPath id="clip0_3_931">
<rect width="120" height="120" rx="60" fill="white"/>
</clipPath>
</defs>
</svg>
