<svg width="120" height="120" viewBox="0 0 120 120" fill="none" xmlns="http://www.w3.org/2000/svg">
<g clip-path="url(#clip0_3_933)">
<rect width="120" height="120" rx="60" fill="white"/>
<circle cx="60" cy="60" r="60" fill="#DEF4FF"/>
<path d="M31.824 46.7886C29.928 66.2165 26.952 73.3205 25.344 75.8405C24.936 76.4645 25.332 77.3045 26.064 77.4005L58.932 81.7085L60.924 14.7246C60.924 14.7246 35.316 10.8486 31.824 46.7886Z" fill="#441D39"/>
<path d="M97.644 75.8405C96.024 73.3205 93.048 66.2165 91.164 46.7885C87.672 10.8485 61.344 14.7005 61.344 14.7005L64.068 81.6965L96.936 77.3885C97.68 77.2925 98.064 76.4645 97.656 75.8285L97.644 75.8405Z" fill="#441D39"/>
<path d="M49.7044 77.4235L48.0844 91.0315L73.1404 90.3115L71.4604 77.4235H49.7044Z" fill="#FFC7A4"/>
<path d="M48.7676 85.2713C48.7676 85.2713 65.6276 86.8193 71.5676 79.4273V70.9313L50.1956 72.9833L48.7676 85.2713Z" fill="#F2B594"/>
<path d="M90.1327 49.8832C89.8447 46.8352 87.3607 46.3792 86.1487 46.3432C84.9607 30.3832 73.7167 14.7352 60.9367 14.7352C48.1567 14.7352 38.3647 30.3832 37.1767 46.3432C36.1327 46.3312 33.2287 46.5832 32.9167 49.8952C32.5327 53.9392 33.8887 57.0472 36.4087 58.3912C36.4087 58.3912 36.9487 58.6552 38.1847 58.8712V58.7872C41.3047 71.5792 50.6407 80.8552 61.6687 80.8552C72.6967 80.8552 82.0207 71.5912 85.1527 58.8112C86.1847 58.6072 86.6527 58.3912 86.6527 58.3912C89.1727 57.0472 90.5287 53.9392 90.1447 49.8952L90.1327 49.8832Z" fill="#FFC7A4"/>
<path d="M44.7837 43.0568C48.8397 42.3248 52.4277 42.9008 54.2517 43.2488C54.8037 43.3568 55.3557 43.0928 55.5237 42.6368C55.7157 42.1208 55.3557 41.5928 54.7317 41.4728C52.6557 41.0768 48.9237 40.4768 45.0117 41.8448C44.4117 42.0608 43.3437 42.6488 43.6677 43.1168C43.8477 43.2848 44.2437 43.1408 44.7837 43.0448V43.0568Z" fill="#441D39"/>
<path d="M78.7558 43.0568C74.6998 42.3248 71.1118 42.9008 69.2878 43.2488C68.7358 43.3568 68.1838 43.0928 68.0158 42.6368C67.8238 42.1208 68.1838 41.5928 68.8078 41.4728C70.8838 41.0768 74.6158 40.4768 78.5278 41.8448C79.1278 42.0608 80.1958 42.6488 79.8718 43.1168C79.6918 43.2848 79.2958 43.1408 78.7558 43.0448V43.0568Z" fill="#441D39"/>
<path d="M73.2844 51.3713C74.0863 51.3713 74.7364 50.2431 74.7364 48.8513C74.7364 47.4595 74.0863 46.3313 73.2844 46.3313C72.4825 46.3313 71.8324 47.4595 71.8324 48.8513C71.8324 50.2431 72.4825 51.3713 73.2844 51.3713Z" fill="#441D39"/>
<path d="M51.5039 51.3713C52.3059 51.3713 52.9559 50.2431 52.9559 48.8513C52.9559 47.4595 52.3059 46.3313 51.5039 46.3313C50.702 46.3313 50.0519 47.4595 50.0519 48.8513C50.0519 50.2431 50.702 51.3713 51.5039 51.3713Z" fill="#441D39"/>
<path d="M63.3597 60.6955H61.0677C59.8557 60.6955 58.8717 60.3235 58.4877 59.7115C58.2717 59.3755 58.2477 58.9915 58.4157 58.6315C58.9437 57.5155 59.3757 56.4355 59.3757 56.4355C59.4957 56.1235 59.8557 55.9795 60.1557 56.1115C60.4677 56.2315 60.6117 56.5915 60.4797 56.8915C60.4797 56.8915 60.0357 57.9955 59.4957 59.1475C59.5557 59.1835 60.0477 59.4955 61.0677 59.4955H63.3597C63.6957 59.4955 63.9597 59.7595 63.9597 60.0955C63.9597 60.4315 63.6957 60.6955 63.3597 60.6955Z" fill="#EDA07E"/>
<path d="M61.1644 68.244C58.3684 68.244 56.2444 67.86 56.0884 67.824C55.7644 67.764 55.5484 67.452 55.6084 67.128C55.6684 66.804 55.9924 66.588 56.3044 66.648C56.3764 66.648 63.0604 67.884 68.2924 65.928C68.6044 65.808 68.9524 65.964 69.0604 66.276C69.1804 66.588 69.0244 66.936 68.7124 67.044C66.2044 67.98 63.4564 68.244 61.1524 68.244H61.1644Z" fill="#EDA07E"/>
<path d="M74.4841 55.8356C76.797 55.8356 78.6721 55.4058 78.6721 54.8756C78.6721 54.3455 76.797 53.9156 74.4841 53.9156C72.1711 53.9156 70.2961 54.3455 70.2961 54.8756C70.2961 55.4058 72.1711 55.8356 74.4841 55.8356Z" fill="#EAA281"/>
<path d="M50.0517 55.8356C52.3646 55.8356 54.2397 55.4058 54.2397 54.8756C54.2397 54.3455 52.3646 53.9156 50.0517 53.9156C47.7387 53.9156 45.8637 54.3455 45.8637 54.8756C45.8637 55.4058 47.7387 55.8356 50.0517 55.8356Z" fill="#EAA281"/>
<path d="M38.148 38.675L36.948 38.603C38.124 18.611 56.76 15.767 56.952 15.743L57.12 16.931C57.12 16.931 52.584 17.603 48.024 20.615C41.94 24.635 38.628 30.707 38.148 38.675Z" fill="#30132B"/>
<path d="M61.3441 14.7117V25.1157C61.3441 25.1157 79.0441 22.5117 86.2681 46.3437C86.2681 46.3437 91.1761 14.2797 61.3441 14.7237V14.7117Z" fill="#441D39"/>
<path d="M60.9241 14.7231V25.1271C60.9241 25.1271 44.2801 22.9551 37.0561 46.7871C37.0561 46.7871 31.0921 14.2911 60.9241 14.7231Z" fill="#441D39"/>
<path d="M107.748 105.361C99.624 102.625 81.576 93.5527 75.24 90.3127C75.24 90.2767 75.24 90.2407 75.216 90.2047L73.824 85.7287C73.632 85.1047 73.056 84.6727 72.396 84.6727H48.336C47.616 84.6727 47.004 85.1767 46.872 85.8847L45.12 90.1447C45.072 90.3727 45.084 90.5887 45.132 90.7927C38.124 94.3567 21.3 102.757 13.536 105.373C3.59999 108.721 3.59999 125.689 3.59999 125.689H117.696C117.696 125.689 117.696 108.721 107.76 105.373L107.748 105.361Z" fill="#4598C4"/>
<path d="M37.4522 63.5518C37.1042 63.5518 36.9482 63.5518 36.8882 62.9038H36.8642C36.8642 62.9038 36.8642 62.7598 36.8642 62.5918C36.8402 62.0398 36.8402 61.1878 36.8402 59.8318C36.8402 58.4758 36.8402 57.6238 36.8642 57.0718C36.8642 56.9038 36.8642 56.7958 36.8642 56.7598H36.8882C36.9602 56.1118 37.1042 56.1118 37.4522 56.1118C37.8002 56.1118 37.9562 56.1118 38.0162 56.7598H38.0402C38.0402 56.7598 38.0402 56.9038 38.0402 57.0718C38.0642 57.6238 38.0642 58.4758 38.0642 59.8318C38.0642 61.1878 38.0642 62.0398 38.0402 62.5918C38.0402 62.7598 38.0402 62.8678 38.0402 62.9038H38.0162C37.9442 63.5518 37.8002 63.5518 37.4522 63.5518Z" fill="#FFA33A"/>
<path d="M86.6757 63.5518C86.3277 63.5518 86.1717 63.5518 86.1117 62.9038H86.0877C86.0877 62.9038 86.0877 62.7598 86.0877 62.5918C86.0637 62.0398 86.0637 61.1878 86.0637 59.8318C86.0637 58.4758 86.0637 57.6238 86.0877 57.0718C86.0877 56.9038 86.0877 56.7958 86.0877 56.7598H86.1117C86.1837 56.1118 86.3277 56.1118 86.6757 56.1118C87.0237 56.1118 87.1797 56.1118 87.2397 56.7598H87.2637C87.2637 56.7598 87.2637 56.9038 87.2637 57.0718C87.2877 57.6238 87.2877 58.4758 87.2877 59.8318C87.2877 61.1878 87.2877 62.0398 87.2637 62.5918C87.2637 62.7598 87.2637 62.8678 87.2637 62.9038H87.2397C87.1677 63.5518 87.0237 63.5518 86.6757 63.5518Z" fill="#FFA33A"/>
<path d="M49.9687 93.7571C49.9687 93.7571 49.8967 93.7571 49.8727 93.7571C49.5487 93.6971 49.3207 93.3971 49.3807 93.0611L50.2927 87.7331C50.3527 87.4091 50.6647 87.1931 50.9887 87.2411C51.3127 87.3011 51.5407 87.6011 51.4807 87.9371L50.5687 93.2651C50.5207 93.5531 50.2687 93.7691 49.9807 93.7691L49.9687 93.7571Z" fill="#2579AD"/>
<path d="M70.2963 93.755C70.0083 93.755 69.7563 93.551 69.7083 93.251L68.7963 87.923C68.7363 87.599 68.9643 87.287 69.2883 87.227C69.6123 87.179 69.9243 87.395 69.9843 87.719L70.8963 93.047C70.9563 93.371 70.7283 93.683 70.4043 93.743C70.3683 93.743 70.3323 93.743 70.3083 93.743L70.2963 93.755Z" fill="#2579AD"/>
<path d="M60.6598 94.2609C60.3238 94.2609 60.0598 93.9969 60.0598 93.6609V88.2609C60.0598 87.9249 60.3238 87.6609 60.6598 87.6609C60.9958 87.6609 61.2598 87.9249 61.2598 88.2609V93.6609C61.2598 93.9969 60.9958 94.2609 60.6598 94.2609Z" fill="#2579AD"/>
</g>
<defs>
<clipPath id="clip0_3_933">
<rect width="120" height="120" rx="60" fill="white"/>
</clipPath>
</defs>
</svg>
