<svg width="120" height="120" viewBox="0 0 120 120" fill="none" xmlns="http://www.w3.org/2000/svg">
<g clip-path="url(#clip0_3_932)">
<rect width="120" height="120" rx="60" fill="white"/>
<circle cx="60" cy="60" r="60" fill="#DEF4FF"/>
<path d="M85.5958 46.3549C85.5958 46.3549 89.8438 45.8389 90.2278 49.8829C90.6118 53.9269 89.2558 57.0349 86.7358 58.3789C86.7358 58.3789 86.1958 58.6429 84.9598 58.8589L85.5958 46.3669V46.3549Z" fill="#FFB69F"/>
<path d="M37.5358 46.3549C37.5358 46.3549 33.2878 45.8389 32.9038 49.8829C32.5198 53.9269 33.8758 57.0349 36.3958 58.3789C36.3958 58.3789 36.9358 58.6429 38.1718 58.8589L37.5358 46.3669V46.3549Z" fill="#FFB69F"/>
<path d="M3.60001 125.677C3.60001 125.677 3.60001 108.709 13.536 105.361C23.472 102.013 45.924 89.1609 45.924 89.1609H61.116V125.677H3.60001Z" fill="#F49037"/>
<path d="M117.695 125.677C117.695 125.677 117.695 108.709 107.759 105.361C97.8233 102.013 75.6113 89.1609 75.6113 89.1609H60.1793V125.677H117.695Z" fill="#F49037"/>
<path d="M49.704 77.4235L48.3 89.1595H72.996L71.46 77.4235H49.704Z" fill="#FFB69F"/>
<path d="M60.648 96.1811C67.4676 96.1811 72.996 93.7796 72.996 90.8171C72.996 87.8547 67.4676 85.4531 60.648 85.4531C53.8284 85.4531 48.3 87.8547 48.3 90.8171C48.3 93.7796 53.8284 96.1811 60.648 96.1811Z" fill="#FFB69F"/>
<path d="M48.7676 85.2713C48.7676 85.2713 65.6276 86.8193 71.5676 79.4273V70.9313L50.1956 72.9833L48.7676 85.2713Z" fill="#FF9988"/>
<path d="M61.6561 80.8319C75.249 80.8319 86.2681 66.745 86.2681 49.3679C86.2681 31.9908 75.249 17.9039 61.6561 17.9039C48.0633 17.9039 37.0441 31.9908 37.0441 49.3679C37.0441 66.745 48.0633 80.8319 61.6561 80.8319Z" fill="#FFB69F"/>
<path d="M83.1481 24.2409C83.1481 24.2409 83.1721 24.1809 83.1481 24.1449C82.3321 22.1889 81.3361 12.3609 65.3281 10.8729C61.2241 10.4889 55.3561 11.1729 51.6361 12.9489C46.5361 15.3729 40.8361 16.7649 35.7961 16.7529C35.5801 16.7529 35.4961 17.0409 35.6881 17.1489L39.6241 20.2809C39.7801 20.3649 39.7681 20.5929 39.6001 20.6649L34.6561 22.1649C34.4761 22.2369 34.4761 22.5009 34.6561 22.5609C35.4601 22.8249 37.5001 23.7249 39.3481 24.3609C36.3241 29.7129 37.0201 37.4049 37.0201 46.6449C37.0201 46.6449 36.9241 56.2209 40.1521 67.2009C43.6801 79.2009 51.4201 84.3489 62.3281 84.3849C73.9441 84.4329 80.0041 74.4729 81.6241 70.9329C84.0961 65.5089 86.2201 55.4289 86.2321 49.3689C86.2321 49.3689 90.6961 34.0569 83.1241 24.2409H83.1481ZM73.2841 68.7009C70.8841 69.9249 72.0961 63.5529 67.3201 63.2889C65.7241 63.1929 60.3001 62.8209 55.7401 63.2049C52.2721 63.5049 51.4321 66.6249 51.2761 68.2089C51.2041 68.8929 50.9641 69.2049 50.3161 68.9649C48.8761 68.4369 45.8161 66.7329 44.3761 65.1489C42.8881 63.5169 40.2001 59.1129 39.9481 49.8129L40.2121 36.5289C40.2121 36.5289 45.5521 32.0529 46.4761 28.8729C46.4761 28.8729 70.3321 32.6889 77.2441 28.8729C77.2441 28.8729 80.1361 34.4049 83.2921 36.0729C84.2641 36.5769 84.0961 42.8889 84.0121 47.2449C83.9281 47.8329 83.8561 48.5049 83.8201 49.2969C83.1841 61.7409 75.6601 67.4889 73.2721 68.7129L73.2841 68.7009Z" fill="#B54D4D"/>
<path d="M73.2844 51.8869C74.0863 51.8869 74.7364 50.7586 74.7364 49.3669C74.7364 47.9751 74.0863 46.8469 73.2844 46.8469C72.4825 46.8469 71.8324 47.9751 71.8324 49.3669C71.8324 50.7586 72.4825 51.8869 73.2844 51.8869Z" fill="#441D39"/>
<path d="M51.5039 51.3712C52.3059 51.3712 52.9559 50.243 52.9559 48.8512C52.9559 47.4595 52.3059 46.3312 51.5039 46.3312C50.702 46.3312 50.0519 47.4595 50.0519 48.8512C50.0519 50.243 50.702 51.3712 51.5039 51.3712Z" fill="#441D39"/>
<path d="M63.3482 60.6961H61.0562C60.0362 60.6961 59.1362 60.3001 58.6562 59.6401C58.3082 59.1721 58.2122 58.6201 58.3802 58.0801C58.8962 56.4241 59.5682 50.2441 59.5682 50.1841C59.6042 49.8481 59.8922 49.6201 60.2282 49.6561C60.5522 49.6921 60.7922 49.9921 60.7562 50.3161C60.7322 50.5801 60.0602 56.6641 59.5202 58.4401C59.4722 58.6201 59.4962 58.7761 59.6162 58.9441C59.8682 59.2801 60.4322 59.5081 61.0562 59.5081H63.3482C63.6842 59.5081 63.9482 59.7721 63.9482 60.1081C63.9482 60.4441 63.6842 60.7081 63.3482 60.7081V60.6961Z" fill="#FF9988"/>
<path d="M74.5556 55.8356C76.8685 55.8356 78.7436 55.4058 78.7436 54.8756C78.7436 54.3455 76.8685 53.9156 74.5556 53.9156C72.2426 53.9156 70.3676 54.3455 70.3676 54.8756C70.3676 55.4058 72.2426 55.8356 74.5556 55.8356Z" fill="#FF9988"/>
<path d="M50.1115 55.8356C52.4244 55.8356 54.2995 55.4058 54.2995 54.8756C54.2995 54.3455 52.4244 53.9156 50.1115 53.9156C47.7985 53.9156 45.9235 54.3455 45.9235 54.8756C45.9235 55.4058 47.7985 55.8356 50.1115 55.8356Z" fill="#FF9988"/>
<path d="M78.3714 43.511C74.3754 42.335 71.3154 43.079 69.4554 43.319C68.6634 43.415 68.4954 42.443 68.4954 42.443C68.3394 41.783 69.2274 41.327 69.8514 41.207C71.9514 40.823 74.6394 40.631 78.6234 42.011C79.3914 42.275 79.4394 42.923 79.4394 42.923C79.3554 43.643 78.8994 43.655 78.3714 43.499V43.511Z" fill="#B54D4D"/>
<path d="M46.1995 43.5846C50.1715 42.3366 53.2435 43.0326 55.1035 43.2366C55.8955 43.3206 56.0515 42.3486 56.0515 42.3486C56.1955 41.6886 55.2955 41.2446 54.6715 41.1366C52.5595 40.7886 49.8715 40.6326 45.9235 42.0846C45.1555 42.3606 45.1195 43.0086 45.1195 43.0086C45.2155 43.7286 45.6715 43.7286 46.1875 43.5726L46.1995 43.5846Z" fill="#B54D4D"/>
<path d="M61.5241 70.4411C58.6921 70.4411 56.4361 69.841 56.2921 69.805C55.9681 69.721 55.7881 69.3851 55.8721 69.0731C55.9561 68.7611 56.2921 68.5691 56.6041 68.6531C56.6641 68.6651 62.1841 70.1291 66.6361 68.3891C66.9481 68.2691 67.2961 68.4251 67.4161 68.7251C67.5361 69.0371 67.3801 69.385 67.0801 69.505C65.2441 70.225 63.2761 70.453 61.5361 70.453L61.5241 70.4411Z" fill="#9B3D3D"/>
<path d="M48.828 85.3312L58.38 92.1472L53.76 103.211L41.4 91.7032L48.828 85.3312Z" fill="#FFA242"/>
<path d="M58.38 92.1472L58.956 96.2392L56.784 95.9632L58.38 92.1472Z" fill="#F49037"/>
<path d="M63.8283 91.9317L62.9883 96.2397L65.3403 95.8437L63.8283 91.9317Z" fill="#F49037"/>
<path d="M63.8283 91.9317L72.5763 85.5117L80.7723 92.0877L68.5803 104.268L63.8283 91.9317Z" fill="#FFA242"/>
<path d="M62.9759 97.8117H58.9559V125.664H62.9759V97.8117Z" fill="white"/>
<path d="M58.8718 95.6651L58.9558 98.1131C58.9558 98.1131 60.8278 98.9291 62.9758 98.1131L63.0358 95.8931L58.8598 95.6531L58.8718 95.6651Z" fill="#FFB69F"/>
<path d="M62.9759 103.692H58.9559V104.892H62.9759V103.692Z" fill="#D6D6D6"/>
<path d="M62.9759 109.104H58.9559V110.304H62.9759V109.104Z" fill="#D6D6D6"/>
<path d="M62.9759 114.516H58.9559V115.716H62.9759V114.516Z" fill="#D6D6D6"/>
<path d="M62.9759 119.927H58.9559V121.127H62.9759V119.927Z" fill="#D6D6D6"/>
<path d="M66.3962 110.269C66.9794 110.269 67.4522 109.796 67.4522 109.213C67.4522 108.63 66.9794 108.157 66.3962 108.157C65.813 108.157 65.3402 108.63 65.3402 109.213C65.3402 109.796 65.813 110.269 66.3962 110.269Z" fill="#FFA242"/>
<path d="M66.3962 122.051C66.9794 122.051 67.4522 121.578 67.4522 120.995C67.4522 120.412 66.9794 119.939 66.3962 119.939C65.813 119.939 65.3402 120.412 65.3402 120.995C65.3402 121.578 65.813 122.051 66.3962 122.051Z" fill="#FFA242"/>
</g>
<defs>
<clipPath id="clip0_3_932">
<rect width="120" height="120" rx="60" fill="white"/>
</clipPath>
</defs>
</svg>
