<svg width="120" height="120" viewBox="0 0 120 120" fill="none" xmlns="http://www.w3.org/2000/svg">
<g clip-path="url(#clip0_3_937)">
<rect width="120" height="120" rx="60" fill="white"/>
<circle cx="60" cy="60" r="60" fill="#DEF4FF"/>
<path d="M60.1556 15.095C60.9116 15.275 61.6676 15.359 62.4356 15.287C66.2276 14.963 79.1276 14.819 84.6956 27.107C91.2476 41.603 94.8116 45.527 90.2396 62.375C85.6676 79.223 89.3156 78.587 91.6796 87.167L91.7516 87.419C93.0236 92.039 89.2796 96.503 84.4916 96.107L75.3356 95.327C74.6756 95.267 74.0036 95.315 73.3556 95.447C68.1476 96.527 43.2716 101.459 33.7316 98.963C30.4676 98.111 27.6716 97.079 25.3436 96.047C21.3596 94.283 20.1116 89.315 22.5836 85.727C23.6276 84.227 24.4436 82.583 24.6116 81.011C25.1156 76.163 21.7436 71.795 23.0756 63.575C25.2956 49.811 29.5076 51.083 30.2516 42.491C30.6836 37.571 38.0876 9.82699 60.1436 15.095H60.1556Z" fill="#EB3F3A"/>
<path d="M60.1556 15.095C60.9116 15.275 61.6676 15.359 62.4356 15.287C66.2276 14.963 79.1276 14.819 84.6956 27.107C91.2476 41.603 94.8116 45.527 90.2396 62.375C85.6676 79.223 89.3156 78.587 91.6796 87.167L91.7516 87.419C93.0236 92.039 89.2796 96.503 84.4916 96.107L75.3356 95.327C74.6756 95.267 74.0036 95.315 73.3556 95.447C68.1476 96.527 43.2716 101.459 33.7316 98.963C30.4676 98.111 27.6716 97.079 25.3436 96.047C21.3596 94.283 20.1116 89.315 22.5836 85.727C23.6276 84.227 24.4436 82.583 24.6116 81.011C25.1156 76.163 21.7436 71.795 23.0756 63.575C25.2956 49.811 29.5076 51.083 30.2516 42.491C30.6836 37.571 38.0876 9.82699 60.1436 15.095H60.1556Z" fill="#EB3F3A"/>
<path d="M107.748 105.359C97.812 102.011 72.984 89.1594 72.984 89.1594L71.448 77.4234H49.704L48.3 89.1594C48.3 89.1594 23.484 102.011 13.536 105.359C3.58799 108.707 3.59999 125.675 3.59999 125.675H117.696C117.696 125.675 117.696 108.707 107.76 105.359H107.748Z" fill="#FFB69F"/>
<path d="M60.648 92.8691C67.4676 92.8691 72.996 91.209 72.996 89.1611C72.996 87.1133 67.4676 85.4531 60.648 85.4531C53.8284 85.4531 48.3 87.1133 48.3 89.1611C48.3 91.209 53.8284 92.8691 60.648 92.8691Z" fill="#FFB69F"/>
<path d="M48.7676 85.2712C48.7676 85.2712 65.6276 86.8192 71.5676 79.4272V70.9312L50.1956 72.9832L48.7676 85.2712Z" fill="#FF9988"/>
<path d="M61.6561 80.8319C75.249 80.8319 86.2681 66.745 86.2681 49.3679C86.2681 31.9908 75.249 17.9039 61.6561 17.9039C48.0633 17.9039 37.0441 31.9908 37.0441 49.3679C37.0441 66.745 48.0633 80.8319 61.6561 80.8319Z" fill="#FFB69F"/>
<path d="M85.4879 46.3549C85.4879 46.3549 89.7359 45.8389 90.1199 49.8829C90.5039 53.9269 89.1479 57.0349 86.6279 58.3789C86.6279 58.3789 86.0879 58.6429 84.8519 58.8589L85.4879 46.3669V46.3549Z" fill="#FFB69F"/>
<path d="M37.5358 46.3549C37.5358 46.3549 33.2878 45.8389 32.9038 49.8829C32.5198 53.9269 33.8758 57.0349 36.3958 58.3789C36.3958 58.3789 36.9358 58.6429 38.1718 58.8589L37.5358 46.3669V46.3549Z" fill="#FFB69F"/>
<path d="M37.0438 46.6442C37.0438 46.6442 35.2558 17.6762 61.6558 18.0242V48.3362L37.0438 46.6442Z" fill="#FFB69F"/>
<path d="M86.2558 46.6442C86.2558 46.6442 88.0438 17.6762 61.6438 18.0242V48.3362L86.2558 46.6442Z" fill="#FFB69F"/>
<path d="M44.7837 43.0567C48.8397 42.3247 52.4277 42.9007 54.2517 43.2487C54.8037 43.3567 55.3557 43.0927 55.5237 42.6367C55.7157 42.1207 55.3557 41.5927 54.7317 41.4727C52.6557 41.0767 48.9237 40.4767 45.0117 41.8447C44.4117 42.0607 43.3437 42.6487 43.6677 43.1167C43.8477 43.2847 44.2437 43.1407 44.7837 43.0447V43.0567Z" fill="#EB3F3A"/>
<path d="M78.7804 43.0691C74.7244 42.3371 71.1364 42.9131 69.3124 43.2611C68.7604 43.3691 68.2084 43.0931 68.0404 42.6371C67.8484 42.1211 68.2084 41.5811 68.8324 41.4611C70.9084 41.0531 74.6404 40.4531 78.5524 41.8451C79.1524 42.0611 80.2204 42.6491 79.8964 43.1291C79.7164 43.2971 79.3204 43.1531 78.7804 43.0571V43.0691Z" fill="#EB3F3A"/>
<path d="M73.2844 51.8869C74.0863 51.8869 74.7364 50.7586 74.7364 49.3669C74.7364 47.9751 74.0863 46.8469 73.2844 46.8469C72.4825 46.8469 71.8324 47.9751 71.8324 49.3669C71.8324 50.7586 72.4825 51.8869 73.2844 51.8869Z" fill="#441D39"/>
<path d="M51.5039 51.3712C52.3059 51.3712 52.9559 50.243 52.9559 48.8512C52.9559 47.4595 52.3059 46.3312 51.5039 46.3312C50.702 46.3312 50.0519 47.4595 50.0519 48.8512C50.0519 50.243 50.702 51.3712 51.5039 51.3712Z" fill="#441D39"/>
<path d="M63.3482 60.6957H61.0562C60.0362 60.6957 59.1362 60.2997 58.6562 59.6397C58.3082 59.1717 58.2122 58.6197 58.3802 58.0797C58.9082 56.3517 59.3522 54.7077 59.3522 54.7077C59.4362 54.3837 59.7722 54.2037 60.0842 54.2877C60.4082 54.3717 60.6002 54.7077 60.5042 55.0197C60.5042 55.0197 60.0602 56.6877 59.5202 58.4277C59.4722 58.6077 59.4962 58.7637 59.6162 58.9317C59.8682 59.2677 60.4322 59.4957 61.0562 59.4957H63.3482C63.6842 59.4957 63.9482 59.7597 63.9482 60.0957C63.9482 60.4317 63.6842 60.6957 63.3482 60.6957Z" fill="#FF9988"/>
<path d="M58.1395 68.5074C57.0235 68.5074 56.2915 68.4474 56.2075 68.4354C55.8835 68.4114 55.6315 68.1114 55.6675 67.7874C55.6915 67.4514 55.9915 67.2234 56.3155 67.2354C56.3875 67.2354 63.1555 67.7874 68.1715 65.3154C68.4715 65.1714 68.8315 65.2914 68.9755 65.5914C69.1195 65.8914 68.9995 66.2514 68.6995 66.3954C65.0275 68.2074 60.6235 68.4954 58.1515 68.4954L58.1395 68.5074Z" fill="#FF9988"/>
<path d="M74.4841 55.8356C76.7971 55.8356 78.6721 55.4058 78.6721 54.8756C78.6721 54.3454 76.7971 53.9156 74.4841 53.9156C72.1711 53.9156 70.2961 54.3454 70.2961 54.8756C70.2961 55.4058 72.1711 55.8356 74.4841 55.8356Z" fill="#FF9988"/>
<path d="M50.0517 55.8356C52.3646 55.8356 54.2397 55.4058 54.2397 54.8756C54.2397 54.3454 52.3646 53.9156 50.0517 53.9156C47.7387 53.9156 45.8637 54.3454 45.8637 54.8756C45.8637 55.4058 47.7387 55.8356 50.0517 55.8356Z" fill="#FF9988"/>
<path d="M72.9953 89.1611C72.9953 89.1611 72.6473 85.1291 72.4313 84.8771C67.0193 86.5931 56.8073 86.4011 48.8513 84.5531C48.8513 84.5531 48.1673 87.2411 38.1713 94.2851L23.4353 101.305L22.0793 125.677H97.8473L95.3273 100.249L73.0073 89.1611H72.9953Z" fill="#1C2642"/>
<path d="M69.852 16.9809C69.816 16.9209 69.792 16.8489 69.756 16.8009C68.976 15.5049 56.964 14.9769 55.968 15.2889C55.164 15.5409 44.808 21.5049 40.872 23.7849C39.9 24.3489 39.156 25.2249 38.772 26.2809L30.78 47.9529C30.588 48.4689 30.492 49.0209 30.48 49.5849L30.168 93.2889C30.156 95.7609 28.824 97.3929 31.284 97.6449L42.108 98.8809C44.472 99.1209 46.644 97.6089 47.244 95.3169L48.084 90.5529C48.372 89.4489 48.036 88.5849 48.168 87.2409C48.624 82.7529 41.304 72.3969 42.348 69.2529C43.644 65.3409 45.42 61.1529 45.732 55.8489C46.044 50.5449 42.612 41.1849 47.448 29.8089C51.336 20.6649 60.36 22.4889 63.744 23.5569C63.996 23.6409 64.26 23.6889 64.524 23.7249C64.524 23.7249 83.964 29.7489 84.468 51.3729C84.468 51.3729 85.26 52.5969 85.764 51.1569C89.232 41.1609 84.732 19.1289 69.84 16.9929L69.852 16.9809Z" fill="#EB3F3A"/>
<path d="M86.2316 57.0476C86.6823 57.0476 87.0476 56.6823 87.0476 56.2316C87.0476 55.7809 86.6823 55.4156 86.2316 55.4156C85.7809 55.4156 85.4156 55.7809 85.4156 56.2316C85.4156 56.6823 85.7809 57.0476 86.2316 57.0476Z" fill="white"/>
</g>
<defs>
<clipPath id="clip0_3_937">
<rect width="120" height="120" rx="60" fill="white"/>
</clipPath>
</defs>
</svg>
