<svg width="120" height="120" viewBox="0 0 120 120" fill="none" xmlns="http://www.w3.org/2000/svg">
<g clip-path="url(#clip0_10_4597)">
<rect width="120" height="120" rx="60" fill="white"/>
<circle cx="60" cy="60" r="60" fill="#DEF4FF"/>
<path d="M107.748 105.361C97.812 102.013 72.984 89.1609 72.984 89.1609H48.3C48.3 89.1609 23.484 102.013 13.536 105.361C3.60001 108.709 3.60001 125.677 3.60001 125.677H117.696C117.696 125.677 117.696 108.709 107.76 105.361H107.748Z" fill="#424777"/>
<path fill-rule="evenodd" clip-rule="evenodd" d="M48.0844 91.0315L49.7044 77.4235H71.4604L73.1404 90.3115L70.8353 90.3777L65.0996 94.2725L62.3396 121.44L57.7796 94.6085L53.3938 90.8789L48.0844 91.0315Z" fill="#C1735C"/>
<path d="M48.7676 85.2713C48.7676 85.2713 65.6276 86.8193 71.5676 79.4273V70.9313L50.1956 72.9833L48.7676 85.2713Z" fill="#A5503C"/>
<path d="M48.5877 86.7844L40.4637 93.1324L51.4197 103.824L57.7797 94.6084L48.5877 86.7844Z" fill="#515882"/>
<path d="M65.1 94.2722L72.696 86.8922L80.1 92.7482L70.296 103.476L65.1 94.2722Z" fill="#515882"/>
<path d="M55.6439 7.75228C54.0719 3.86428 46.6559 1.48828 46.6559 1.48828C48.4919 13.6443 55.4759 11.0283 55.4759 11.0283C55.6199 10.7403 55.7159 10.4523 55.7999 10.1763C61.2719 13.2243 65.8319 2.04028 65.8319 2.04028C58.2119 2.59228 56.1239 5.56828 55.6439 7.75228Z" fill="#FF7C59"/>
<path fill-rule="evenodd" clip-rule="evenodd" d="M61.6561 80.8319C72.6771 80.8319 82.0062 71.5714 85.1419 58.805C86.1728 58.6014 86.6279 58.3789 86.6279 58.3789C89.1479 57.0349 90.504 53.9269 90.12 49.8829C89.8318 46.8481 87.3674 46.3814 86.1554 46.3374C84.9627 30.3821 74.4493 17.9039 61.6561 17.9039C48.8638 17.9039 38.351 30.3805 37.1571 46.3342C36.1074 46.3191 33.2174 46.5807 32.9038 49.8829C32.5198 53.9269 33.8758 57.0349 36.3958 58.3789C36.3958 58.3789 36.9358 58.6429 38.1718 58.8589L38.1687 58.7983C41.3028 71.5682 50.6332 80.8319 61.6561 80.8319Z" fill="#C1735C"/>
<path d="M61.6558 16.0557C35.2558 15.6837 37.0438 46.5357 37.0438 46.5357L61.6558 48.3357L86.2678 46.5357C86.2678 46.5357 88.0558 15.6837 61.6558 16.0557Z" fill="#C1735C"/>
<path d="M44.7837 43.0567C48.8397 42.3247 52.4277 42.9007 54.2517 43.2487C54.8037 43.3567 55.3557 43.0927 55.5237 42.6367C55.7157 42.1207 55.3557 41.5927 54.7317 41.4727C52.6557 41.0767 48.9237 40.4767 45.0117 41.8447C44.4117 42.0607 43.3437 42.6487 43.6677 43.1167C43.8477 43.2847 44.2437 43.1407 44.7837 43.0447V43.0567Z" fill="#441D39"/>
<path d="M78.7804 43.0691C74.7244 42.3371 71.1364 42.9131 69.3124 43.2611C68.7604 43.3691 68.2084 43.0931 68.0404 42.6371C67.8484 42.1211 68.2084 41.5811 68.8324 41.4611C70.9084 41.0531 74.6404 40.4531 78.5524 41.8451C79.1524 42.0611 80.2204 42.6491 79.8964 43.1291C79.7164 43.2971 79.3204 43.1531 78.7804 43.0571V43.0691Z" fill="#441D39"/>
<path d="M73.2844 51.8869C74.0863 51.8869 74.7364 50.7586 74.7364 49.3669C74.7364 47.9751 74.0863 46.8469 73.2844 46.8469C72.4825 46.8469 71.8324 47.9751 71.8324 49.3669C71.8324 50.7586 72.4825 51.8869 73.2844 51.8869Z" fill="#441D39"/>
<path d="M51.5039 51.3712C52.3059 51.3712 52.9559 50.243 52.9559 48.8512C52.9559 47.4595 52.3059 46.3312 51.5039 46.3312C50.702 46.3312 50.0519 47.4595 50.0519 48.8512C50.0519 50.243 50.702 51.3712 51.5039 51.3712Z" fill="#441D39"/>
<path d="M63.3599 60.6955H61.0679C60.0479 60.6955 59.1479 60.2995 58.6679 59.6515C58.3199 59.1835 58.2239 58.6315 58.3919 58.0915C58.9199 56.3635 59.3639 54.7315 59.3639 54.7195C59.4479 54.3955 59.7719 54.2155 60.0959 54.2995C60.4199 54.3835 60.6119 54.7195 60.5159 55.0315C60.5159 55.0315 60.0719 56.6995 59.5319 58.4395C59.4839 58.6075 59.5079 58.7755 59.6279 58.9435C59.8799 59.2915 60.4439 59.5075 61.0679 59.5075H63.3599C63.6959 59.5075 63.9599 59.7715 63.9599 60.1075C63.9599 60.4435 63.6959 60.7075 63.3599 60.7075V60.6955Z" fill="#A5503C"/>
<path d="M58.1286 68.5191C57.0126 68.5191 56.2806 68.4592 56.1966 68.4472C55.8606 68.4232 55.6206 68.1232 55.6446 67.7992C55.6686 67.4752 55.9566 67.2232 56.2926 67.2472C56.3646 67.2472 63.1326 67.7992 68.1486 65.3272C68.4486 65.1832 68.8086 65.3032 68.9526 65.6032C69.0966 65.9032 68.9766 66.2632 68.6766 66.4072C65.0046 68.2192 60.6006 68.5072 58.1166 68.5072L58.1286 68.5191Z" fill="#A5503C"/>
<path d="M74.4841 55.8356C76.797 55.8356 78.6721 55.4058 78.6721 54.8756C78.6721 54.3455 76.797 53.9156 74.4841 53.9156C72.1711 53.9156 70.2961 54.3455 70.2961 54.8756C70.2961 55.4058 72.1711 55.8356 74.4841 55.8356Z" fill="#AF5D4E"/>
<path d="M50.0517 55.8356C52.3646 55.8356 54.2397 55.4058 54.2397 54.8756C54.2397 54.3455 52.3646 53.9156 50.0517 53.9156C47.7387 53.9156 45.8637 54.3455 45.8637 54.8756C45.8637 55.4058 47.7387 55.8356 50.0517 55.8356Z" fill="#AF5D4E"/>
<path d="M77.7117 27.6121C77.7117 27.6121 84.9837 40.7281 86.2557 46.5361C86.2557 46.5361 90.1917 29.0521 80.9157 19.5961L77.7117 27.6001V27.6121Z" fill="#FF7C59"/>
<path d="M37.0436 46.5371L39.6596 36.5531H36.4676L37.0436 46.5371Z" fill="#FF7C59"/>
<path d="M76.8837 14.4244C76.8837 14.4244 76.8837 14.3644 76.8837 14.3404C76.8837 11.5444 74.6157 9.2884 71.8317 9.2884C71.2197 9.2884 70.6557 9.4084 70.1157 9.6124C68.6277 8.0404 66.2997 7.0204 63.6597 7.0204C61.2237 7.0204 59.0397 7.8964 57.5397 9.2764C55.9677 8.3284 54.0237 7.7524 51.9237 7.7524C51.0357 7.7524 50.1837 7.8604 49.3677 8.0404C48.1797 7.0084 46.6437 6.3844 44.9517 6.3844C42.2877 6.3844 39.9957 7.9324 38.9037 10.1764C38.2437 9.6244 37.4037 9.2884 36.4797 9.2884C34.3677 9.2884 32.6637 11.0044 32.6637 13.1044C32.6637 13.3324 32.6877 13.5484 32.7357 13.7644C28.5717 13.8244 25.2117 17.2204 25.2117 21.3964C25.2117 23.9284 26.4477 26.1724 28.3557 27.5644C27.6477 28.7164 27.2397 30.0724 27.2397 31.5364C27.2397 35.7604 30.6597 39.1804 34.8837 39.1804C39.1077 39.1804 42.5277 35.7604 42.5277 31.5364C42.5277 31.4524 42.5277 31.3684 42.5157 31.2844C43.5357 31.7884 44.6757 32.0764 45.8877 32.0764C49.9317 32.0764 53.2317 28.9324 53.5077 24.9724C54.8877 26.3764 56.8077 27.2404 58.9317 27.2404C62.0877 27.2404 64.7997 25.3204 65.9637 22.5844C66.5997 26.1724 69.7197 28.8964 73.4877 28.8964C77.7117 28.8964 81.1317 25.4764 81.1317 21.2524C81.1317 18.2644 79.4157 15.6844 76.9077 14.4244H76.8837Z" fill="#441D39"/>
</g>
<defs>
<clipPath id="clip0_10_4597">
<rect width="120" height="120" rx="60" fill="white"/>
</clipPath>
</defs>
</svg>
