<svg width="120" height="120" viewBox="0 0 120 120" fill="none" xmlns="http://www.w3.org/2000/svg">
<g clip-path="url(#clip0_3_935)">
<rect width="120" height="120" rx="60" fill="white"/>
<circle cx="60" cy="60" r="60" fill="#DEF4FF"/>
<path d="M48.3004 16.0805C48.3004 16.0805 33.8164 19.2125 34.8724 38.2325C35.9284 57.2525 32.5324 62.6165 32.5324 62.6165L36.2524 61.5845L48.2884 69.8285L80.7364 63.3365L85.8244 64.8485L87.3964 61.2965C87.3964 61.2965 89.1844 63.2165 90.9604 63.3245C90.9604 63.3245 89.3044 54.7805 89.6164 50.9645C90.2764 42.9725 86.4364 31.3445 86.4364 31.3445L48.2764 16.0805H48.3004Z" fill="#441D39"/>
<path d="M107.749 105.361C99.5646 102.613 81.3126 93.4207 75.1086 90.2527C74.6286 90.0127 74.2326 89.7967 73.9086 89.6407C73.3326 89.3407 72.9966 89.1727 72.9966 89.1727H48.3126C48.3126 89.1727 47.9886 89.3407 47.4006 89.6407C47.0766 89.8087 46.6686 90.0127 46.2006 90.2527C45.2886 90.7207 44.1246 91.3087 42.7686 91.9927C34.8606 95.9767 20.5446 103.021 13.5606 105.361C3.6246 108.709 3.6246 125.677 3.6246 125.677H117.685C117.685 125.677 117.685 108.709 107.749 105.361Z" fill="#FDEBD9"/>
<path d="M71.448 77.4235H49.704L48.3 89.1595C48.3 91.4635 53.832 93.3355 60.648 93.3355C67.464 93.3355 72.996 91.4635 72.996 89.1595L71.46 77.4235H71.448Z" fill="#C1735C"/>
<path d="M40.2115 36.7194C40.2115 36.7194 41.0035 30.2634 46.4755 29.0634C46.4755 29.0634 84.9595 29.0634 77.2435 29.0634C77.2435 29.0634 82.2475 29.0634 83.2915 36.2634C83.4475 37.3434 85.0435 48.4194 84.9475 52.7754C84.8875 55.5714 85.9795 54.0954 85.9795 54.0954C85.9795 54.0954 87.1555 49.6314 87.3475 43.7754C87.7075 32.6154 86.2555 13.4274 62.7235 13.4274C39.1915 13.4274 37.0195 27.5514 37.0195 45.7674L37.8835 54.7314C37.9195 55.0914 38.2195 55.3554 38.5795 55.3554C39.2635 55.3554 40.1995 36.7194 40.1995 36.7194H40.2115Z" fill="#C1735C"/>
<path d="M82.476 34.3912C82.9333 34.3912 83.304 34.0205 83.304 33.5632C83.304 33.1059 82.9333 32.7352 82.476 32.7352C82.0188 32.7352 81.648 33.1059 81.648 33.5632C81.648 34.0205 82.0188 34.3912 82.476 34.3912Z" fill="#FF9988"/>
<path d="M48.7676 85.2713C48.7676 85.2713 65.6276 86.8193 71.5676 79.4273V70.9313L50.1956 72.9833L48.7676 85.2713Z" fill="#A5503C"/>
<path fill-rule="evenodd" clip-rule="evenodd" d="M62.4214 80.8319C73.8327 80.8319 83.4301 70.919 86.2168 57.4713C86.7357 57.3306 86.9725 57.215 86.9725 57.215C89.4925 55.8731 90.8485 52.7698 90.4645 48.732C90.1995 45.9455 88.0942 45.3273 86.8149 45.2118C85.2053 29.8491 74.8974 18 62.4214 18C49.688 18 39.2131 30.343 37.9394 46.1669C37.3351 46.1561 33.7411 46.2482 33.6092 49.968C33.4652 54.0298 35.0133 57.0372 37.6053 58.2233C37.6053 58.2233 37.9947 58.3839 38.8588 58.5206C41.9166 71.4314 51.3089 80.8319 62.4214 80.8319Z" fill="#C1735C"/>
<path d="M73.2715 51.8869C74.0734 51.8869 74.7235 50.7586 74.7235 49.3669C74.7235 47.9751 74.0734 46.8469 73.2715 46.8469C72.4696 46.8469 71.8195 47.9751 71.8195 49.3669C71.8195 50.7586 72.4696 51.8869 73.2715 51.8869Z" fill="#441D39"/>
<path d="M51.4922 51.3712C52.2941 51.3712 52.9442 50.243 52.9442 48.8512C52.9442 47.4595 52.2941 46.3312 51.4922 46.3312C50.6903 46.3312 50.0402 47.4595 50.0402 48.8512C50.0402 50.243 50.6903 51.3712 51.4922 51.3712Z" fill="#441D39"/>
<path d="M63.3482 60.6953H61.0562C60.0362 60.6953 59.1362 60.2993 58.6562 59.6513C58.3082 59.1833 58.2122 58.6313 58.3802 58.0913C58.8962 56.4113 59.6042 51.8513 59.6162 51.8033C59.6642 51.4793 59.9762 51.2633 60.3002 51.2993C60.6242 51.3473 60.8522 51.6593 60.8042 51.9833C60.7802 52.1753 60.0722 56.6873 59.5322 58.4393C59.4842 58.6073 59.5082 58.7753 59.6282 58.9433C59.8802 59.2913 60.4442 59.5073 61.0682 59.5073H63.3602C63.6962 59.5073 63.9602 59.7713 63.9602 60.1073C63.9602 60.4433 63.6962 60.7073 63.3602 60.7073L63.3482 60.6953Z" fill="#A5503C"/>
<path d="M74.5556 55.8356C76.8686 55.8356 78.7436 55.4058 78.7436 54.8756C78.7436 54.3455 76.8686 53.9156 74.5556 53.9156C72.2426 53.9156 70.3676 54.3455 70.3676 54.8756C70.3676 55.4058 72.2426 55.8356 74.5556 55.8356Z" fill="#AF5D4E"/>
<path d="M50.1126 55.8356C52.4256 55.8356 54.3006 55.4058 54.3006 54.8756C54.3006 54.3455 52.4256 53.9156 50.1126 53.9156C47.7997 53.9156 45.9246 54.3455 45.9246 54.8756C45.9246 55.4058 47.7997 55.8356 50.1126 55.8356Z" fill="#AF5D4E"/>
<path d="M78.4324 43.2364C74.3764 42.3124 71.3644 43.2364 69.5284 43.5964C68.7484 43.7524 68.5084 42.7804 68.5084 42.7804C68.3164 42.1324 69.1684 41.6164 69.7924 41.4724C71.8684 40.9564 74.5324 40.5964 78.5884 41.7364C79.3684 41.9524 79.4524 42.6004 79.4524 42.6004C79.4044 43.3204 78.9604 43.3684 78.4324 43.2364Z" fill="#441D39"/>
<path d="M46.0804 43.0671C50.1724 42.2991 53.1484 43.3551 54.9724 43.7751C55.7524 43.9551 56.0164 43.0071 56.0164 43.0071C56.2324 42.3711 55.4044 41.8191 54.7924 41.6391C52.7404 41.0511 50.0884 40.5831 45.9844 41.5551C45.1924 41.7471 45.0844 42.3831 45.0844 42.3831C45.0964 43.1031 45.5404 43.1631 46.0804 43.0671Z" fill="#441D39"/>
<path d="M61.5244 69.8153C58.6804 69.8153 56.4364 69.2153 56.2804 69.1793C55.9564 69.0953 55.7764 68.7593 55.8604 68.4473C55.9444 68.1233 56.2804 67.9433 56.5924 68.0273C56.6524 68.0393 62.1724 69.5033 66.6244 67.7633C66.9364 67.6433 67.2844 67.7993 67.4044 68.0993C67.5244 68.4113 67.3684 68.7593 67.0684 68.8793C65.2324 69.5993 63.2644 69.8273 61.5244 69.8273V69.8153Z" fill="#A5503C"/>
<path d="M79.3565 15.4689C62.8925 2.44888 48.3005 16.0809 48.3005 16.0809C33.8645 18.7209 35.9165 40.0329 36.2645 42.3129C36.6125 44.5809 37.0565 46.1529 37.0565 46.1529C37.3685 46.1649 37.6565 46.1529 37.9325 46.0929L39.1565 54.8769C39.2405 55.1889 39.7085 55.2129 39.8165 54.8769C39.9245 54.7569 40.2605 49.6209 40.5845 44.2569C43.3205 40.2129 43.2005 30.7449 48.3005 26.5089C50.7965 24.4329 54.3005 26.0649 54.3005 26.0649C54.3005 26.0649 56.9165 21.4449 63.1445 24.1329C68.7485 26.5449 75.6365 41.7489 83.2325 45.3609C83.5325 50.3049 83.8325 54.7689 83.9285 54.8889C84.0365 55.2249 84.5045 55.2009 84.5885 54.8889L85.8125 46.1169L89.2925 44.3049C89.2925 44.3049 90.8645 22.6569 79.3325 15.4809L79.3565 15.4689Z" fill="#441D39"/>
<path d="M107.748 105.361C103.428 103.909 96.2999 100.657 89.6159 97.4531L70.9679 104.065V121.909H69.7679V104.485L65.9039 105.853V125.665H117.684C117.684 125.665 117.684 108.697 107.748 105.349V105.361Z" fill="#4598C4"/>
<path d="M80.6879 90.4808C74.7839 88.4528 65.9039 105.853 65.9039 105.853L69.7679 104.485V121.909H70.9679V104.065L89.6159 97.4528L89.6879 97.4288C89.6879 97.4288 86.6039 92.5088 80.6999 90.4808H80.6879Z" fill="#2B7FA5"/>
<path d="M51.852 104.567L49.08 121.427L47.892 121.235L50.7 104.159L31.716 97.4274C25.02 100.643 17.868 103.907 13.536 105.359C3.60001 108.707 3.60001 125.675 3.60001 125.675H55.236L55.5 105.863L51.852 104.567Z" fill="#4598C4"/>
<path d="M40.7165 90.4806C34.8245 92.4966 31.7405 97.4046 31.7285 97.4286L50.7125 104.161L47.9045 121.237L49.0925 121.429L51.8645 104.569L55.5125 105.865C55.5125 105.865 46.6205 88.4646 40.7285 90.4926L40.7165 90.4806Z" fill="#2B7FA5"/>
</g>
<defs>
<clipPath id="clip0_3_935">
<rect width="120" height="120" rx="60" fill="white"/>
</clipPath>
</defs>
</svg>
